<svg width="49" height="48" viewBox="0 0 49 48" fill="none" xmlns="http://www.w3.org/2000/svg">
<path opacity="0.4" d="M3.65438 32.5865L15.4389 44.371C20.2775 49.2097 28.1339 49.2097 32.9985 44.371L44.4188 32.9507C49.2575 28.112 49.2575 20.2557 44.4188 15.391L32.6083 3.63256C30.137 1.1612 26.7291 -0.165536 23.2432 0.0165641L10.236 0.640908C5.03314 0.875037 0.89686 5.01132 0.636716 10.1882L0.0123723 23.1953C-0.143714 26.7073 1.18302 30.1151 3.65438 32.5865Z" fill="#1B2950"/>
<path d="M17.5175 24.9911C21.6553 24.9911 25.0096 21.6368 25.0096 17.499C25.0096 13.3612 21.6553 10.0068 17.5175 10.0068C13.3797 10.0068 10.0254 13.3612 10.0254 17.499C10.0254 21.6368 13.3797 24.9911 17.5175 24.9911Z" fill="#1B2950"/>
<path d="M26.6223 38.9615C26.128 38.9615 25.6338 38.7794 25.2435 38.3892C24.4891 37.6348 24.4891 36.3861 25.2435 35.6317L35.6493 25.226C36.4037 24.4716 37.6524 24.4716 38.4068 25.226C39.1612 25.9804 39.1612 27.2291 38.4068 27.9835L28.0011 38.3892C27.6108 38.7794 27.1166 38.9615 26.6223 38.9615Z" fill="#1B2950"/>
</svg>
