<svg width="48" height="50" viewBox="0 0 48 50" fill="none" xmlns="http://www.w3.org/2000/svg">
<path d="M35.2934 49.9999C37.5675 49.9999 39.4111 48.1564 39.4111 45.8823C39.4111 43.6082 37.5675 41.7646 35.2934 41.7646C33.0193 41.7646 31.1758 43.6082 31.1758 45.8823C31.1758 48.1564 33.0193 49.9999 35.2934 49.9999Z" fill="#1B2950"/>
<path d="M16.4712 49.9999C18.7453 49.9999 20.5888 48.1564 20.5888 45.8823C20.5888 43.6082 18.7453 41.7646 16.4712 41.7646C14.197 41.7646 12.3535 43.6082 12.3535 45.8823C12.3535 48.1564 14.197 49.9999 16.4712 49.9999Z" fill="#1B2950"/>
<path opacity="0.4" d="M8.44705 6.32942L7.97647 12.0941C7.88235 13.2 8.75295 14.1176 9.85883 14.1176H45.8824C46.8706 14.1176 47.6941 13.3647 47.7647 12.3765C48.0706 8.21175 44.8941 4.82354 40.7294 4.82354H11.8588C11.6235 3.78824 11.1529 2.79999 10.4235 1.97646C9.27057 0.729403 7.62354 0 5.92942 0H1.76471C0.8 0 0 0.8 0 1.76471C0 2.72941 0.8 3.52941 1.76471 3.52941H5.85884C6.58825 3.52941 7.2706 3.83531 7.76471 4.35296C8.25883 4.89413 8.49411 5.60001 8.44705 6.32942Z" fill="#1B2950"/>
<path d="M45.3179 17.6475H9.22378C8.23554 17.6475 7.43554 18.4004 7.34142 19.3651L6.49436 29.6004C6.16495 33.6004 9.3179 37.0592 13.3414 37.0592H39.5061C43.0355 37.0592 46.1414 34.1651 46.4003 30.6357L47.1767 19.6475C47.2708 18.5651 46.4238 17.6475 45.3179 17.6475Z" fill="#1B2950"/>
</svg>
