<svg width="48" height="48" viewBox="0 0 48 48" fill="none" xmlns="http://www.w3.org/2000/svg">
<path opacity="0.4" d="M35.5138 0H10.085C4.51426 0 0 4.51426 0 10.061V24.9005V25.3567C0 30.9275 4.51426 35.4177 10.061 35.4177H18.7054C20.026 35.4177 21.1066 36.4983 21.1066 37.8189V39.7879C21.1066 41.1086 20.026 42.1891 18.7054 42.1891H13.3027C12.3662 42.1891 11.5978 42.9575 11.5978 43.894C11.5978 44.8304 12.3662 45.5988 13.3027 45.5988H32.3442C33.2806 45.5988 34.049 44.8304 34.049 43.894C34.049 42.9575 33.2806 42.1891 32.3442 42.1891H26.9415C25.6208 42.1891 24.5403 41.1086 24.5403 39.7879V37.8189C24.5403 36.4983 25.6208 35.4177 26.9415 35.4177H35.5138C41.0845 35.4177 45.5748 30.9035 45.5748 25.3567V24.9005V10.061C45.5748 4.51426 41.0605 0 35.5138 0Z" fill="#1B2950"/>
<path d="M42.334 18.0098H29.6317C25.4776 18.0098 23.9648 19.5225 23.9648 23.7246V42.2859C23.9648 46.512 25.4536 48.0008 29.6317 48.0008H42.334C46.4881 48.0008 48.0009 46.488 48.0009 42.2859V23.7246C48.0009 19.4985 46.5121 18.0098 42.334 18.0098ZM35.9949 43.9908C34.5301 43.9908 33.3535 42.8142 33.3535 41.3494C33.3535 39.8847 34.5301 38.7081 35.9949 38.7081C37.4596 38.7081 38.6362 39.8847 38.6362 41.3494C38.6362 42.8142 37.4596 43.9908 35.9949 43.9908Z" fill="#1B2950"/>
<path opacity="0.4" d="M38.6362 41.3483C38.6362 42.8131 37.4596 43.9897 35.9948 43.9897C34.5301 43.9897 33.3535 42.8131 33.3535 41.3483C33.3535 39.8836 34.5301 38.707 35.9948 38.707C37.4596 38.707 38.6362 39.9076 38.6362 41.3483Z" fill="#1B2950"/>
</svg>
