<svg width="36" height="50" viewBox="0 0 36 50" fill="none" xmlns="http://www.w3.org/2000/svg">
<path opacity="0.4" d="M17.5977 0C11.0477 0 5.72266 5.32503 5.72266 11.8751C5.72266 18.3001 10.7477 23.5001 17.2977 23.7251C17.4977 23.7001 17.6977 23.7001 17.8477 23.7251C17.8977 23.7251 17.9227 23.7251 17.9727 23.7251C17.9977 23.7251 17.9977 23.7251 18.0227 23.7251C24.4228 23.5001 29.4478 18.3001 29.4728 11.8751C29.4728 5.32503 24.1478 0 17.5977 0Z" fill="#1B2950"/>
<path d="M30.3002 30.3752C23.3251 25.7252 11.9501 25.7252 4.92503 30.3752C1.75001 32.5002 0 35.3752 0 38.4503C0 41.5253 1.75001 44.3753 4.90003 46.4753C8.40005 48.8253 13.0001 50.0003 17.6001 50.0003C22.2001 50.0003 26.8002 48.8253 30.3002 46.4753C33.4502 44.3503 35.2002 41.5003 35.2002 38.4003C35.1752 35.3252 33.4502 32.4752 30.3002 30.3752Z" fill="#1B2950"/>
</svg>
