<svg width="46" height="48" viewBox="0 0 46 48" fill="none" xmlns="http://www.w3.org/2000/svg">
<path d="M45.6002 21.36V5.04C45.6002 1.44 44.0642 0 40.2482 0H30.5522C26.7362 0 25.2002 1.44 25.2002 5.04V21.36C25.2002 24.96 26.7362 26.4 30.5522 26.4H40.2482C44.0642 26.4 45.6002 24.96 45.6002 21.36Z" fill="#1B2950"/>
<path d="M20.4 26.6396V42.9596C20.4 46.5596 18.864 47.9996 15.048 47.9996H5.352C1.536 47.9996 0 46.5596 0 42.9596V26.6396C0 23.0396 1.536 21.5996 5.352 21.5996H15.048C18.864 21.5996 20.4 23.0396 20.4 26.6396Z" fill="#1B2950"/>
<path opacity="0.4" d="M45.6002 42.9602V36.2402C45.6002 32.6402 44.0642 31.2002 40.2482 31.2002H30.5522C26.7362 31.2002 25.2002 32.6402 25.2002 36.2402V42.9602C25.2002 46.5602 26.7362 48.0002 30.5522 48.0002H40.2482C44.0642 48.0002 45.6002 46.5602 45.6002 42.9602Z" fill="#1B2950"/>
<path opacity="0.4" d="M20.4 11.76V5.04C20.4 1.44 18.864 0 15.048 0H5.352C1.536 0 0 1.44 0 5.04V11.76C0 15.36 1.536 16.8 5.352 16.8H15.048C18.864 16.8 20.4 15.36 20.4 11.76Z" fill="#1B2950"/>
</svg>
