<svg width="45" height="50" viewBox="0 0 45 50" fill="none" xmlns="http://www.w3.org/2000/svg">
<path d="M32.5 32.5V42.5C32.5 46.65 29.15 50 25 50H20C15.85 50 12.5 46.65 12.5 42.5V32.5H32.5Z" fill="#1B2950"/>
<path d="M10 12.5V7.5C10 3.35 13.35 0 17.5 0H27.5C31.65 0 35 3.35 35 7.5V12.5H10Z" fill="#1B2950"/>
<path opacity="0.4" d="M37.5 12.5H7.5C2.5 12.5 0 15 0 20V32.5C0 37.5 2.5 40 7.5 40H12.5V32.5H32.5V40H37.5C42.5 40 45 37.5 45 32.5V20C45 15 42.5 12.5 37.5 12.5ZM17.5 24.375H10C8.975 24.375 8.125 23.525 8.125 22.5C8.125 21.475 8.975 20.625 10 20.625H17.5C18.525 20.625 19.375 21.475 19.375 22.5C19.375 23.525 18.525 24.375 17.5 24.375Z" fill="#1B2950"/>
<path d="M19.375 22.5C19.375 23.525 18.525 24.375 17.5 24.375H10C8.975 24.375 8.125 23.525 8.125 22.5C8.125 21.475 8.975 20.625 10 20.625H17.5C18.525 20.625 19.375 21.475 19.375 22.5Z" fill="#1B2950"/>
<path d="M35 34.375H10C8.975 34.375 8.125 33.525 8.125 32.5C8.125 31.475 8.975 30.625 10 30.625H35C36.025 30.625 36.875 31.475 36.875 32.5C36.875 33.525 36.025 34.375 35 34.375Z" fill="#1B2950"/>
</svg>
