<svg width="49" height="50" viewBox="0 0 49 50" fill="none" xmlns="http://www.w3.org/2000/svg">
<path d="M48.5853 9.71699V15.5958C48.5853 19.434 46.156 21.8632 42.3178 21.8632H34.0098V4.88279C34.0098 2.18632 36.2204 0 38.9169 0C41.5647 0.0242925 43.994 1.09316 45.743 2.84222C47.4921 4.61557 48.5853 7.04482 48.5853 9.71699Z" fill="#1B2950"/>
<path opacity="0.4" d="M0 12.1462V46.1557C0 48.172 2.28351 49.3137 3.88681 48.0991L8.0408 44.9897C9.0125 44.2609 10.3729 44.3581 11.2474 45.2326L15.28 49.2894C16.2274 50.2369 17.7821 50.2369 18.7295 49.2894L22.8106 45.2083C23.6609 44.3581 25.0213 44.2609 25.9687 44.9897L30.1227 48.0991C31.726 49.2894 34.0095 48.1477 34.0095 46.1557V4.8585C34.0095 2.18632 36.1958 0 38.868 0H12.1462H9.71699C2.42925 0 0 4.34835 0 9.71699V12.1462Z" fill="#1B2950"/>
<path d="M23.6848 17.6121H18.8263V12.7536C18.8263 11.7576 18.0003 10.9316 17.0043 10.9316C16.0083 10.9316 15.1824 11.7576 15.1824 12.7536V17.6121H10.3239C9.3279 17.6121 8.50195 18.438 8.50195 19.434C8.50195 20.43 9.3279 21.2559 10.3239 21.2559H15.1824V26.1144C15.1824 27.1104 16.0083 27.9364 17.0043 27.9364C18.0003 27.9364 18.8263 27.1104 18.8263 26.1144V21.2559H23.6848C24.6807 21.2559 25.5067 20.43 25.5067 19.434C25.5067 18.438 24.6807 17.6121 23.6848 17.6121Z" fill="#1B2950"/>
</svg>
