<svg width="43" height="50" viewBox="0 0 43 50" fill="none" xmlns="http://www.w3.org/2000/svg">
<path opacity="0.4" d="M8.07399 44.2445C10.1237 42.0447 13.2483 42.2197 15.0481 44.6194L17.5728 47.994C19.5976 50.6687 22.8721 50.6687 24.8969 47.994L27.4216 44.6194C29.2213 42.2197 32.346 42.0447 34.3957 44.2445C38.8451 48.9939 42.4697 47.4191 42.4697 40.7699V12.5984C42.4947 2.52468 40.145 0 30.6962 0H11.7985C2.34971 0 0 2.52468 0 12.5984V40.7449C0 47.4191 3.64954 48.9689 8.07399 44.2445Z" fill="#1B2950"/>
<path d="M31.8223 24.3716H18.074C17.0491 24.3716 16.1992 23.5217 16.1992 22.4968C16.1992 21.472 17.0491 20.6221 18.074 20.6221H31.8223C32.8471 20.6221 33.697 21.472 33.697 22.4968C33.697 23.5217 32.8471 24.3716 31.8223 24.3716Z" fill="#1B2950"/>
<path d="M31.8223 14.3736H18.074C17.0491 14.3736 16.1992 13.5237 16.1992 12.4988C16.1992 11.4739 17.0491 10.624 18.074 10.624H31.8223C32.8471 10.624 33.697 11.4739 33.697 12.4988C33.697 13.5237 32.8471 14.3736 31.8223 14.3736Z" fill="#1B2950"/>
<path d="M10.6989 14.9984C9.32408 14.9984 8.19922 13.8735 8.19922 12.4987C8.19922 11.1239 9.32408 9.99902 10.6989 9.99902C12.0737 9.99902 13.1986 11.1239 13.1986 12.4987C13.1986 13.8735 12.0737 14.9984 10.6989 14.9984Z" fill="#1B2950"/>
<path d="M10.6989 24.9964C9.32408 24.9964 8.19922 23.8716 8.19922 22.4968C8.19922 21.1219 9.32408 19.9971 10.6989 19.9971C12.0737 19.9971 13.1986 21.1219 13.1986 22.4968C13.1986 23.8716 12.0737 24.9964 10.6989 24.9964Z" fill="#1B2950"/>
</svg>
