<svg width="59" height="50" viewBox="0 0 59 50" fill="none" xmlns="http://www.w3.org/2000/svg">
<path opacity="0.4" d="M58.1409 16.2783V37.9649C58.1409 44.622 52.7338 50 46.0766 50H12.0642C5.4071 50 0 44.622 0 37.9649V16.2783H58.1409Z" fill="#1B2950"/>
<path d="M58.1409 12.0352V16.2794H0V12.0352C0 5.37803 5.4071 0 12.0642 0H46.0766C52.7338 0 58.1409 5.37803 58.1409 12.0352Z" fill="#1B2950"/>
<path d="M17.4416 40.261H11.6275C10.4357 40.261 9.44727 39.2726 9.44727 38.0807C9.44727 36.8888 10.4357 35.9004 11.6275 35.9004H17.4416C18.6335 35.9004 19.6219 36.8888 19.6219 38.0807C19.6219 39.2726 18.6335 40.261 17.4416 40.261Z" fill="#1B2950"/>
<path d="M36.3377 40.261H24.7096C23.5177 40.261 22.5293 39.2726 22.5293 38.0807C22.5293 36.8888 23.5177 35.9004 24.7096 35.9004H36.3377C37.5296 35.9004 38.518 36.8888 38.518 38.0807C38.518 39.2726 37.5296 40.261 36.3377 40.261Z" fill="#1B2950"/>
</svg>
