<svg width="50" height="50" viewBox="0 0 50 50" fill="none" xmlns="http://www.w3.org/2000/svg">
<path opacity="0.4" d="M35.4678 0H14.5323C5.42771 0 0 5.42771 0 14.5323V35.4677C0 44.5723 5.42771 50 14.5323 50H35.4678C44.5723 50 50 44.5723 50 35.4677V14.5323C50 5.42771 44.5723 0 35.4678 0Z" fill="#1B2950"/>
<path d="M15.4579 36.9678H19.1848C21.9111 36.9678 24.0372 34.8417 24.0372 32.1153V28.3884C24.0372 25.662 21.9111 23.5359 19.1848 23.5359H14.4074C14.6075 19.0086 15.658 18.3334 18.6845 16.5575C19.585 16.0322 19.8601 14.8817 19.3348 13.9813C18.9847 13.381 18.3593 13.0557 17.709 13.0557C17.3839 13.0557 17.0587 13.1308 16.7585 13.3059C12.2813 15.9572 10.6055 17.6831 10.6055 25.387V32.0653C10.6055 34.7916 12.7816 36.9678 15.4579 36.9678Z" fill="#1B2950"/>
<path d="M30.7938 36.9678H34.5207C37.2471 36.9678 39.3731 34.8417 39.3731 32.1153V28.3884C39.3731 25.662 37.2471 23.5359 34.5207 23.5359H29.7433C29.9434 19.0086 30.9939 18.3334 34.0205 16.5575C34.9209 16.0322 35.1961 14.8817 34.6708 13.9813C34.3206 13.381 33.6953 13.0557 33.045 13.0557C32.7198 13.0557 32.3946 13.1308 32.0945 13.3059C27.6172 15.9572 25.9414 17.6831 25.9414 25.387V32.0653C25.9664 34.7916 28.1425 36.9678 30.7938 36.9678Z" fill="#1B2950"/>
</svg>
