<svg width="49" height="48" viewBox="0 0 49 48" fill="none" xmlns="http://www.w3.org/2000/svg">
<path opacity="0.4" d="M48.0239 13.951V34.049C48.0239 42.7893 42.8133 47.9999 34.073 47.9999H13.951C5.2106 48.0239 0 42.8133 0 34.073V13.951C0 5.2106 5.2106 0 13.951 0H34.049C42.8133 0 48.0239 5.2106 48.0239 13.951Z" fill="#1B2950"/>
<path d="M24.0114 39.0198C19.7132 39.0198 16.3516 36.8828 14.0704 34.7697V36.4746C14.0704 37.4591 13.254 38.2755 12.2695 38.2755C11.285 38.2755 10.4686 37.4591 10.4686 36.4746V29.8713C10.4686 28.8868 11.285 28.0704 12.2695 28.0704H18.2245C19.209 28.0704 20.0254 28.8868 20.0254 29.8713C20.0254 30.8558 19.209 31.6722 18.2245 31.6722H16.0634C17.8403 33.4491 20.6017 35.418 24.0114 35.418C30.3025 35.418 35.4171 30.3035 35.4171 24.0124C35.4171 23.0279 36.2335 22.2115 37.218 22.2115C38.2025 22.2115 39.0189 23.0279 39.0189 24.0124C39.0189 32.2965 32.2955 39.0198 24.0114 39.0198ZM10.8048 25.8133C9.82031 25.8133 9.00391 24.9969 9.00391 24.0124C9.00391 15.7282 15.7273 9.00488 24.0114 9.00488C29.174 9.00488 32.9678 11.238 35.4171 13.3751V11.5502C35.4171 10.5657 36.2335 9.74925 37.218 9.74925C38.2025 9.74925 39.0189 10.5657 39.0189 11.5502V18.1294C39.0189 18.2015 39.0189 18.2735 39.0189 18.3215C38.9949 18.5857 38.9228 18.8258 38.8028 19.0419C38.6827 19.258 38.5146 19.4501 38.2985 19.6182C38.1304 19.7382 37.9383 19.8343 37.7222 19.9063C37.5541 19.9543 37.386 19.9783 37.218 19.9783H31.3831C30.3986 19.9783 29.5822 19.1619 29.5822 18.1775C29.5822 17.193 30.3986 16.3766 31.3831 16.3766H33.376C31.4551 14.5997 28.3576 12.6307 24.0594 12.6307C17.7683 12.6307 12.6537 17.7452 12.6537 24.0364C12.6057 24.9969 11.7893 25.8133 10.8048 25.8133Z" fill="#1B2950"/>
</svg>
