<svg width="48" height="48" viewBox="0 0 48 48" fill="none" xmlns="http://www.w3.org/2000/svg">
<path d="M47.5203 45.1672L45.8754 43.5222C46.7207 42.2428 47.2233 40.6892 47.2233 39.0443C47.2233 34.5206 43.5679 30.8652 39.0443 30.8652C34.5207 30.8652 30.8652 34.5206 30.8652 39.0443C30.8652 43.5679 34.5207 47.2234 39.0443 47.2234C40.7121 47.2234 42.2428 46.7207 43.5222 45.8754L45.1671 47.5204C45.487 47.8402 45.9211 48.0001 46.3323 48.0001C46.7664 48.0001 47.1776 47.8402 47.4975 47.5204C48.16 46.8578 48.16 45.8069 47.5203 45.1672Z" fill="#1B2950"/>
<path opacity="0.4" d="M2.37383 31.1611C2.37383 31.2297 2.32812 31.3211 2.32812 31.3896C4.43 35.5934 7.857 39.0431 12.0608 41.1222C12.1293 41.1222 12.2207 41.0765 12.2892 41.0765C11.5124 38.4263 10.9184 35.7076 10.4843 32.9888C7.74277 32.5319 5.02402 31.9379 2.37383 31.1611Z" fill="#1B2950"/>
<path opacity="0.4" d="M41.3069 12.429C39.1594 7.9282 35.5267 4.29562 31.0488 2.1709C31.8713 4.88963 32.5567 7.67692 33.0136 10.4642C35.8009 10.9211 38.5882 11.5836 41.3069 12.429Z" fill="#1B2950"/>
<path opacity="0.4" d="M2.14648 12.4269C4.88807 11.6044 7.67538 10.919 10.4627 10.4621C10.9196 7.74338 11.4907 5.0475 12.2675 2.3973C12.199 2.3973 12.1076 2.35156 12.039 2.35156C7.74389 4.47629 4.24836 8.0632 2.14648 12.4269Z" fill="#1B2950"/>
<path opacity="0.4" d="M29.3107 9.98392C28.7624 7.01387 28.077 4.04386 27.0946 1.16519C27.0489 1.00527 27.0489 0.868209 27.0261 0.685437C25.3355 0.2742 23.5534 0 21.7257 0C19.8751 0 18.1159 0.251354 16.4024 0.685437C16.3796 0.845363 16.4024 0.982423 16.3567 1.16519C15.3972 4.04386 14.6889 7.01387 14.1406 9.98392C19.1897 9.4356 24.2617 9.4356 29.3107 9.98392Z" fill="#1B2950"/>
<path opacity="0.4" d="M9.98392 14.1406C6.99102 14.6889 4.04382 15.3743 1.16516 16.3567C1.00523 16.4024 0.86814 16.4024 0.685368 16.4253C0.27413 18.1159 0 19.898 0 21.7257C0 23.5763 0.251284 25.3354 0.685368 27.0489C0.845293 27.0717 0.982388 27.0489 1.16516 27.0946C4.04382 28.0542 6.99102 28.7624 9.98392 29.3107C9.4356 24.2617 9.4356 19.1897 9.98392 14.1406Z" fill="#1B2950"/>
<path opacity="0.4" d="M42.7458 16.4253C42.5859 16.4253 42.4488 16.4024 42.266 16.3567C39.3874 15.3972 36.4173 14.6889 33.4473 14.1406C34.0184 19.1897 34.0184 24.2616 33.4473 29.2879C36.4173 28.7396 39.3874 28.0542 42.266 27.0718C42.4259 27.0261 42.563 27.0489 42.7458 27.0261C43.157 25.3126 43.4312 23.5534 43.4312 21.7028C43.4312 19.8979 43.1799 18.1388 42.7458 16.4253Z" fill="#1B2950"/>
<path opacity="0.4" d="M14.1406 33.4688C14.6889 36.4616 15.3743 39.4088 16.3567 42.2875C16.4024 42.4474 16.3796 42.5845 16.4024 42.7672C18.1159 43.1785 19.8751 43.4527 21.7257 43.4527C23.5534 43.4527 25.3355 43.2013 27.0261 42.7672C27.0489 42.6073 27.0489 42.4702 27.0946 42.2875C28.0542 39.4088 28.7624 36.4616 29.3107 33.4688C26.7976 33.7429 24.2616 33.9485 21.7257 33.9485C19.1897 33.9257 16.6537 33.7429 14.1406 33.4688Z" fill="#1B2950"/>
<path opacity="0.4" d="M13.6156 13.6146C12.9302 19.0064 12.9302 24.4438 13.6156 29.8585C19.0074 30.5439 24.4449 30.5439 29.8595 29.8585C30.5449 24.4667 30.5449 19.0293 29.8595 13.6146C24.4449 12.9292 19.0074 12.9292 13.6156 13.6146Z" fill="#1B2950"/>
</svg>
