<svg width="51" height="50" viewBox="0 0 51 50" fill="none" xmlns="http://www.w3.org/2000/svg">
<path opacity="0.4" d="M9.48777 35.1363C9.76384 33.9065 9.2619 32.1497 8.38349 31.2713L2.28483 25.1727C0.37743 23.2653 -0.375491 21.2324 0.176651 19.4756C0.75389 17.7187 2.5358 16.5141 5.19612 16.0623L13.0265 14.7572C14.1559 14.5565 15.5362 13.5526 16.0633 12.5236L20.38 3.86499C21.6349 1.38035 23.3415 0 25.1987 0C27.0559 0 28.7625 1.38035 30.0174 3.86499L34.3342 12.5236C34.6604 13.1761 35.3381 13.8035 36.0659 14.2302L9.03602 41.2601C8.68466 41.6114 8.08232 41.2852 8.18271 40.7832L9.48777 35.1363Z" fill="#1B2950"/>
<path d="M42.0177 31.2712C41.1142 32.1747 40.6122 33.9065 40.9134 35.1362L42.6451 42.6905C43.3729 45.8277 42.9212 48.1869 41.3651 49.3162C40.7377 49.768 39.9848 49.9939 39.1064 49.9939C37.8264 49.9939 36.3206 49.517 34.6641 48.5382L27.3106 44.1713C26.1561 43.4936 24.2487 43.4936 23.0943 44.1713L15.7407 48.5382C12.9549 50.1695 10.5707 50.4456 9.03973 49.3162C8.46249 48.8896 8.03584 48.3123 7.75977 47.5594L38.2782 17.041C39.4326 15.8865 41.064 15.3595 42.6451 15.6356L45.1799 16.0622C47.8403 16.514 49.6222 17.7187 50.1994 19.4755C50.7515 21.2323 49.9986 23.2652 48.0912 25.1726L42.0177 31.2712Z" fill="#1B2950"/>
</svg>
