<svg width="50" height="50" viewBox="0 0 50 50" fill="none" xmlns="http://www.w3.org/2000/svg">
<path opacity="0.4" d="M46.7591 23.6706V37.6395C46.7591 44.076 41.5353 49.2997 35.0989 49.2997H14.7169C14.1805 49.2997 13.6441 49.2531 13.1311 49.1832C13.9939 48.81 14.7635 48.2969 15.4631 47.6673C15.5564 47.5973 15.6263 47.5274 15.6963 47.4341C16.3259 46.8978 16.8623 46.2214 17.3054 45.4752C18.1682 44.0759 18.658 42.4202 18.658 40.6712C18.658 38.2225 17.7019 36.0071 16.1627 34.3281C15.9295 34.0715 15.6729 33.8149 15.3931 33.605C13.7607 32.1825 11.6619 31.343 9.32984 31.343C7.67409 31.343 6.11157 31.7861 4.75899 32.5557C4.3159 32.7889 3.89618 33.0687 3.49973 33.3952C3.33649 33.5118 3.19656 33.6517 3.05664 33.7916V23.8339C4.82899 25.7462 7.34762 26.8422 10.0761 26.8422C13.0145 26.8422 15.8362 25.3729 17.6086 23.0176C19.1944 25.3729 21.8995 26.8422 24.9079 26.8422C27.8929 26.8422 30.5514 25.4429 32.1605 23.1108C33.9562 25.4195 36.7313 26.8422 39.6231 26.8422C42.4448 26.8422 45.0101 25.6995 46.7591 23.6706Z" fill="#1B2950"/>
<path d="M31.8766 0.0253906H17.8843L16.1587 17.1892C16.0187 18.775 16.2519 20.2675 16.8349 21.6201C18.1875 24.7917 21.3591 26.8439 24.9038 26.8439C28.4952 26.8439 31.5969 24.8384 32.9961 21.6435C33.4158 20.6407 33.6723 19.4747 33.6957 18.2853V17.8422L31.8766 0.0253906Z" fill="#1B2950"/>
<path opacity="0.6" d="M49.0644 16.3943L48.4115 9.91118C47.432 2.86841 44.2371 0 37.4042 0H28.4492L30.1749 17.4903C30.1982 17.7235 30.2216 17.9801 30.2216 18.4232C30.3615 19.6359 30.7346 20.7552 31.2942 21.758C32.9733 24.8363 36.2382 26.8185 39.643 26.8185C42.7446 26.8185 45.5431 25.4426 47.2922 23.0173C48.6681 21.1749 49.2976 18.8197 49.0644 16.3943Z" fill="#1B2950"/>
<path opacity="0.6" d="M12.2893 0.0253906C5.43309 0.0253906 2.26141 2.89373 1.25863 10.0065L0.629079 16.4196C0.395875 18.9149 1.07218 21.3403 2.54137 23.2292C4.31372 25.538 7.04217 26.8439 10.0738 26.8439C13.4786 26.8439 16.7435 24.8616 18.3992 21.8299C19.0056 20.7805 19.402 19.5678 19.5186 18.3085L21.3376 0.0487338H12.2893V0.0253906Z" fill="#1B2950"/>
<path d="M16.161 34.3288C15.9278 34.0723 15.6713 33.8156 15.3914 33.6058C13.759 32.1832 11.6602 31.3438 9.32817 31.3438C7.67242 31.3438 6.1099 31.7869 4.75732 32.5565C4.31423 32.7897 3.89451 33.0695 3.49806 33.396C1.35258 35.0984 0 37.7335 0 40.6719C0 42.421 0.489769 44.0767 1.35262 45.4759C1.56251 45.8491 1.81905 46.1989 2.0989 46.5254C2.14554 46.5953 2.21537 46.642 2.26201 46.712C3.94108 48.7175 6.48308 50.0001 9.32817 50.0001C11.6835 50.0001 13.829 49.1372 15.4615 47.6681C15.5547 47.5981 15.6246 47.5282 15.6946 47.4349C16.3243 46.8985 16.8606 46.2222 17.3037 45.4759C18.1666 44.0767 18.6563 42.421 18.6563 40.6719C18.6563 38.2233 17.7002 36.0079 16.161 34.3288ZM12.8262 42.3743H11.0772V44.1933C11.0772 45.1495 10.2843 45.9424 9.32817 45.9424C8.37203 45.9424 7.57914 45.1495 7.57914 44.1933V42.3743H5.83011C4.87397 42.3743 4.08108 41.5814 4.08108 40.6252C4.08108 39.6691 4.87397 38.8762 5.83011 38.8762H7.57914V37.2205C7.57914 36.2644 8.37203 35.4715 9.32817 35.4715C10.2843 35.4715 11.0772 36.2644 11.0772 37.2205V38.8762H12.8262C13.7824 38.8762 14.5753 39.6691 14.5753 40.6252C14.5753 41.5814 13.7824 42.3743 12.8262 42.3743Z" fill="#1B2950"/>
</svg>
