<svg width="50" height="50" viewBox="0 0 50 50" fill="none" xmlns="http://www.w3.org/2000/svg">
<path d="M49.9609 9.71719V15.596C49.9609 19.4342 47.4609 21.8634 43.5109 21.8634H34.9609V4.88299C34.9609 2.18652 37.2359 -0.0240942 40.0109 0.000198318C42.7359 0.0244908 45.2359 1.09336 47.0359 2.84242C48.8359 4.61577 49.9609 7.04502 49.9609 9.71719Z" fill="#1B2950"/>
<path opacity="0.4" d="M0 12.1462V46.1557C0 48.172 2.35 49.3137 4 48.0991L8.275 44.9897C9.275 44.2609 10.675 44.3581 11.575 45.2326L15.725 49.2894C16.7 50.2369 18.3 50.2369 19.275 49.2894L23.475 45.2083C24.35 44.3581 25.75 44.2609 26.725 44.9897L31 48.0991C32.65 49.2894 35 48.1477 35 46.1557V4.8585C35 2.18632 37.25 0 40 0H12.5H10C2.5 0 0 4.34835 0 9.71699V12.1462Z" fill="#1B2950"/>
<path d="M23.5938 24.4629C22.2188 24.4629 21.0938 25.5561 21.0938 26.8921C21.0938 28.2282 22.2188 29.3214 23.5938 29.3214C24.9688 29.3214 26.0938 28.2282 26.0938 26.8921C26.0938 25.5561 24.9688 24.4629 23.5938 24.4629Z" fill="#1B2950"/>
<path d="M11.3867 19.4581C12.7867 19.4581 13.8867 18.3649 13.8867 17.0289C13.8867 15.6928 12.7617 14.5996 11.3867 14.5996C10.0117 14.5996 8.88672 15.6928 8.88672 17.0289C8.88672 18.3649 10.0117 19.4581 11.3867 19.4581Z" fill="#1B2950"/>
<path d="M25.6328 13.9073C24.9078 13.2028 23.7078 13.2028 22.9828 13.9073L9.33281 27.171C8.60781 27.8754 8.60781 29.0415 9.33281 29.746C9.70781 30.1104 10.1828 30.2804 10.6578 30.2804C11.1328 30.2804 11.6078 30.1104 11.9828 29.746L25.6328 16.4823C26.3578 15.7778 26.3578 14.6117 25.6328 13.9073Z" fill="#1B2950"/>
</svg>
