<svg width="50" height="50" viewBox="0 0 50 50" fill="none" xmlns="http://www.w3.org/2000/svg">
<path d="M32.5 2.5V25C32.5 27.75 30.25 30 27.5 30H0V10C0 4.475 4.475 0 10 0H30C31.375 0 32.5 1.125 32.5 2.5Z" fill="#1B2950"/>
<path opacity="0.4" d="M50 30V37.5C50 41.65 46.65 45 42.5 45H40C40 42.25 37.75 40 35 40C32.25 40 30 42.25 30 45H20C20 42.25 17.75 40 15 40C12.25 40 10 42.25 10 45H7.5C3.35 45 0 41.65 0 37.5V30H27.5C30.25 30 32.5 27.75 32.5 25V7.5H37.1C38.9 7.5 40.55 8.47502 41.45 10.025L45.725 17.5H42.5C41.125 17.5 40 18.625 40 20V27.5C40 28.875 41.125 30 42.5 30H50Z" fill="#1B2950"/>
<path d="M15 50C17.7614 50 20 47.7614 20 45C20 42.2386 17.7614 40 15 40C12.2386 40 10 42.2386 10 45C10 47.7614 12.2386 50 15 50Z" fill="#1B2950"/>
<path d="M35 50C37.7614 50 40 47.7614 40 45C40 42.2386 37.7614 40 35 40C32.2386 40 30 42.2386 30 45C30 47.7614 32.2386 50 35 50Z" fill="#1B2950"/>
<path d="M50 26.3251V30H42.5C41.125 30 40 28.875 40 27.5V20C40 18.625 41.125 17.5 42.5 17.5H45.725L49.35 23.8499C49.775 24.5999 50 25.4501 50 26.3251Z" fill="#1B2950"/>
</svg>
