<svg width="59" height="50" viewBox="0 0 59 50" fill="none" xmlns="http://www.w3.org/2000/svg">
<path d="M58.8239 21.9706V28.0296C58.8239 29.6472 57.5298 30.9706 55.8828 31.0295H50.118C46.9415 31.0295 44.0298 28.7059 43.7651 25.5295C43.5886 23.6765 44.2945 21.9412 45.5298 20.7353C46.618 19.6177 48.118 18.9707 49.7651 18.9707H55.8828C57.5298 19.0295 58.8239 20.3529 58.8239 21.9706Z" fill="#1B2950"/>
<path opacity="0.4" d="M45.5294 20.7353C44.2941 21.9411 43.5883 23.6764 43.7647 25.5294C44.0294 28.7059 46.9411 31.0294 50.1176 31.0294H55.8824V35.2941C55.8824 44.1176 50 50 41.1765 50H14.7059C5.88235 50 0 44.1176 0 35.2941V14.7059C0 6.70588 4.82354 1.11764 12.3235 0.176463C13.0882 0.0588164 13.8824 0 14.7059 0H41.1765C41.9412 0 42.6765 0.0293759 43.3824 0.147023C50.9706 1.02938 55.8824 6.64706 55.8824 14.7059V18.9706H49.7647C48.1176 18.9706 46.6176 19.6176 45.5294 20.7353Z" fill="#1B2950"/>
<path d="M32.3529 18.3825H14.7059C13.5 18.3825 12.5 17.3825 12.5 16.1766C12.5 14.9707 13.5 13.9707 14.7059 13.9707H32.3529C33.5588 13.9707 34.5588 14.9707 34.5588 16.1766C34.5588 17.3825 33.5588 18.3825 32.3529 18.3825Z" fill="#1B2950"/>
</svg>
