<svg width="50" height="50" viewBox="0 0 50 50" fill="none" xmlns="http://www.w3.org/2000/svg">
<path opacity="0.4" d="M14.1263 47.2745C14.0513 47.2745 13.9513 47.3245 13.8763 47.3245C9.02632 44.9245 5.07635 40.9496 2.65137 36.0996C2.65137 36.0246 2.70137 35.9246 2.70137 35.8496C5.75134 36.7496 8.90132 37.4246 12.0263 37.9496C12.5763 41.0996 13.2263 44.2245 14.1263 47.2745Z" fill="#353A5B"/>
<path opacity="0.4" d="M47.3476 36.1246C44.8726 41.0996 40.7476 45.1245 35.7227 47.5495C36.6726 44.3745 37.4726 41.1746 37.9976 37.9496C41.1476 37.4246 44.2476 36.7496 47.2976 35.8496C47.2726 35.9496 47.3476 36.0496 47.3476 36.1246Z" fill="#353A5B"/>
<path opacity="0.4" d="M47.5476 14.2761C44.3976 13.3261 41.2226 12.5511 37.9976 12.0011C37.4726 8.77612 36.6976 5.57615 35.7227 2.45117C40.8976 4.92615 45.0726 9.10112 47.5476 14.2761Z" fill="#353A5B"/>
<path opacity="0.4" d="M14.1261 2.72344C13.2261 5.77341 12.5761 8.87339 12.0511 12.0234C8.82612 12.5234 5.62615 13.3234 2.45117 14.2733C4.87615 9.24839 8.90112 5.12342 13.8761 2.64844C13.9511 2.64844 14.0511 2.72344 14.1261 2.72344Z" fill="#353A5B"/>
<path d="M33.7243 11.4749C27.9243 10.8249 22.0744 10.8249 16.2744 11.4749C16.8994 8.04994 17.6994 4.62496 18.8244 1.32499C18.8744 1.12499 18.8494 0.974992 18.8744 0.774994C20.8494 0.299998 22.8744 0 24.9993 0C27.0993 0 29.1493 0.299998 31.0993 0.774994C31.1243 0.974992 31.1243 1.12499 31.1743 1.32499C32.2993 4.64996 33.0993 8.04994 33.7243 11.4749Z" fill="#353A5B"/>
<path d="M11.4749 33.7243C8.02494 33.0993 4.62496 32.2993 1.32499 31.1743C1.12499 31.1243 0.974992 31.1493 0.774994 31.1243C0.299998 29.1493 0 27.1243 0 24.9993C0 22.8994 0.299998 20.8494 0.774994 18.8994C0.974992 18.8744 1.12499 18.8744 1.32499 18.8244C4.64996 17.7244 8.02494 16.8994 11.4749 16.2744C10.8499 22.0744 10.8499 27.9243 11.4749 33.7243Z" fill="#353A5B"/>
<path d="M50.0003 24.9993C50.0003 27.1243 49.7003 29.1493 49.2253 31.1243C49.0253 31.1493 48.8753 31.1243 48.6753 31.1743C45.3503 32.2743 41.9504 33.0993 38.5254 33.7243C39.1754 27.9243 39.1754 22.0744 38.5254 16.2744C41.9504 16.8994 45.3753 17.6994 48.6753 18.8244C48.8753 18.8744 49.0253 18.8994 49.2253 18.8994C49.7003 20.8744 50.0003 22.8994 50.0003 24.9993Z" fill="#353A5B"/>
<path d="M33.7243 38.5254C33.0993 41.9754 32.2993 45.3753 31.1743 48.6753C31.1243 48.8753 31.1243 49.0253 31.0993 49.2253C29.1493 49.7003 27.0993 50.0003 24.9993 50.0003C22.8744 50.0003 20.8494 49.7003 18.8744 49.2253C18.8494 49.0253 18.8744 48.8753 18.8244 48.6753C17.7244 45.3503 16.8994 41.9754 16.2744 38.5254C19.1744 38.8504 22.0744 39.0754 24.9993 39.0754C27.9243 39.0754 30.8493 38.8504 33.7243 38.5254Z" fill="#353A5B"/>
<path d="M34.4082 34.4082C28.1555 35.1971 21.8444 35.1971 15.5917 34.4082C14.8028 28.1555 14.8028 21.8444 15.5917 15.5917C21.8444 14.8028 28.1555 14.8028 34.4082 15.5917C35.1971 21.8444 35.1971 28.1555 34.4082 34.4082Z" fill="#353A5B"/>
</svg>
